Coordinates
version=1
nRows=32
nColumns=12
inDegrees=yes

Units are S.I. units (second, meters, Newtons, ...)
Angles are in degrees

endheader
time	SC_y	SC_z	SC_x	AC_y	AC_z	AC_x	GH_y	GH_z	GH_yy	EL_x	PS_y
       0.0              -26.77          12.49          56.67          32.07         -8.456         -11.37         -18.52         -10.25         -113.0          84.82          103.0
   0.01149              -26.77          12.49          56.67          32.07         -8.456         -11.37         -18.53         -10.24         -113.1          84.81          103.0
   0.02297              -26.77          12.49          56.67          32.07         -8.457         -11.37         -18.55         -10.23         -113.1           84.8          103.0
   0.03446              -26.78          12.48          56.67          32.07         -8.457         -11.37         -18.57         -10.21         -113.1          84.79          103.0
   0.04595              -26.78          12.48          56.67          32.07         -8.457         -11.37         -18.58          -10.2         -113.1          84.78          103.0
   0.05744              -26.78          12.48          56.67          32.07         -8.458         -11.37          -18.6         -10.19         -113.1          84.76          102.9
   0.06892              -26.78          12.48          56.67          32.08         -8.458         -11.37         -18.62         -10.17         -113.1          84.75          102.9
   0.08041              -26.78          12.47          56.67          32.08         -8.458         -11.37         -18.64         -10.15         -113.1          84.74          102.9
    0.0919              -26.79          12.47          56.67          32.08         -8.459         -11.37         -18.66         -10.14         -113.1          84.72          102.9
    0.1034              -26.79          12.47          56.67          32.08         -8.459         -11.37         -18.69         -10.12         -113.1           84.7          102.9
    0.1149              -26.79          12.46          56.67          32.09          -8.46         -11.37         -18.71          -10.1         -113.1          84.69          102.9
    0.1264              -26.79          12.46          56.67          32.09          -8.46         -11.36         -18.74         -10.07         -113.1          84.67          102.8
    0.1378               -26.8          12.45          56.67          32.09         -8.461         -11.36         -18.77         -10.05         -113.1          84.65          102.8
    0.1493               -26.8          12.45          56.67           32.1         -8.462         -11.36          -18.8         -10.02         -113.1          84.62          102.8
    0.1608              -26.81          12.44          56.67           32.1         -8.462         -11.36         -18.84         -9.996         -113.1           84.6          102.8
    0.1723              -26.81          12.44          56.67           32.1         -8.463         -11.36         -18.87         -9.966         -113.1          84.57          102.7
    0.1838              -26.81          12.43          56.67          32.11         -8.464         -11.36         -18.91         -9.933         -113.1          84.55          102.7
    0.1953              -26.82          12.42          56.67          32.11         -8.465         -11.36         -18.96         -9.897         -113.1          84.51          102.7
    0.2068              -26.82          12.42          56.67          32.12         -8.466         -11.36         -19.01         -9.857         -113.1          84.48          102.6
    0.2183              -26.83          12.41          56.67          32.12         -8.467         -11.36         -19.06         -9.814         -113.1          84.44          102.6
    0.2297              -26.84           12.4          56.67          32.13         -8.468         -11.36         -19.12         -9.767         -113.1           84.4          102.5
    0.2412              -26.84          12.39          56.67          32.14         -8.469         -11.36         -19.18         -9.715         -113.1          84.36          102.5
    0.2527              -26.85          12.38          56.67          32.14          -8.47         -11.36         -19.25         -9.658         -113.1          84.31          102.4
    0.2642              -26.86          12.37          56.67          32.15         -8.472         -11.36         -19.33         -9.594         -113.1          84.25          102.4
    0.2757              -26.87          12.35          56.67          32.16         -8.474         -11.35         -19.42         -9.524         -113.2          84.19          102.3
    0.2872              -26.88          12.34          56.67          32.17         -8.475         -11.35         -19.52         -9.445         -113.2          84.12          102.2
    0.2987              -26.89          12.32          56.67          32.18         -8.478         -11.35         -19.62         -9.356         -113.2          84.05          102.1
    0.3101              -26.91           12.3          56.67           32.2          -8.48         -11.35         -19.75         -9.257         -113.2          83.96          102.0
    0.3216              -26.92          12.28          56.67          32.21         -8.483         -11.35         -19.89         -9.145         -113.2          83.86          101.9
    0.3331              -26.94          12.26          56.67          32.23         -8.486         -11.34         -20.04         -9.017         -113.2          83.75          101.8
    0.3446              -26.96          12.23          56.67          32.25         -8.489         -11.34         -20.22         -8.872         -113.3          83.63          101.6
    0.3561              -26.98           12.2          56.67          32.27         -8.493         -11.34         -20.43         -8.705         -113.3          83.49          101.5
